<svg id="Layer_1" data-name="Layer 1" xmlns="http://www.w3.org/2000/svg" xmlns:xlink="http://www.w3.org/1999/xlink" viewBox="0 0 271 84"><defs><style>.cls-1{fill:url(#linear-gradient);}.cls-2{fill:url(#linear-gradient-2);}.cls-3{fill:url(#linear-gradient-3);}</style><linearGradient id="linear-gradient" x1="-166.54" y1="436.22" x2="-165.54" y2="436.22" gradientTransform="matrix(26.59, 16.39, 12.4, -35.14, -961.02, 18092.47)" gradientUnits="userSpaceOnUse"><stop offset="0" stop-color="#41e296"/><stop offset="1" stop-color="#00c4ee"/></linearGradient><linearGradient id="linear-gradient-2" x1="-166.54" y1="436.22" x2="-165.54" y2="436.22" gradientTransform="matrix(26.59, 16.39, 12.4, -35.14, -920.6, 18092.47)" xlink:href="#linear-gradient"/><linearGradient id="linear-gradient-3" x1="-158.98" y1="416.22" x2="-157.98" y2="416.22" gradientTransform="matrix(38.99, 3.72, 18.18, -7.98, -1334.04, 3957.57)" xlink:href="#linear-gradient"/></defs><title>Artboard 1</title><g id="_28856978-e37a-d535-7840-517d9be1d24b" data-name="28856978-e37a-d535-7840-517d9be1d24b"><path d="M125.58,34.8h0a.51.51,0,0,1-.58.57H113.75c-.13,0-.2.08-.2.23h0V41h0a.18.18,0,0,0,.2.2h7.33a.53.53,0,0,1,.6.6h0v3h0a.53.53,0,0,1-.6.6h-7.33a.18.18,0,0,0-.2.2h0v9.45h0a.53.53,0,0,1-.6.6H109.2a.53.53,0,0,1-.6-.6h0V31.75h0a.53.53,0,0,1,.6-.6H125a.52.52,0,0,1,.58.6h0Zm5,1.15h0a3,3,0,0,1-2.18-.83h0a2.86,2.86,0,0,1-.82-2.12h0a2.78,2.78,0,0,1,.82-2.1h0a3,3,0,0,1,2.18-.83h0a3.05,3.05,0,0,1,2.2.8h0a2.91,2.91,0,0,1,.8,2.13h0a3,3,0,0,1-.8,2.15h0a3.05,3.05,0,0,1-2.2.8Zm-1.85,19.7h0a.53.53,0,0,1-.6-.6h0V38.25h0a.53.53,0,0,1,.6-.6h3.75q.57,0,.57.6h0v16.8h0q0,.6-.57.6h-3.75Zm8.87,0h0q-.57,0-.57-.6h0V31.75h0q0-.6.57-.6h3.75a.53.53,0,0,1,.6.6h0v23.3h0a.53.53,0,0,1-.6.6h-3.75Zm16.75-3.88h0a4.64,4.64,0,0,0,3.53-1.62h0a.55.55,0,0,1,.45-.25h0a.58.58,0,0,1,.4.17h0l2,1.93h0a.64.64,0,0,1,.23.42h0a.64.64,0,0,1-.15.43h0a8,8,0,0,1-3,2.25h0a9.37,9.37,0,0,1-3.95.82h0a8.43,8.43,0,0,1-5.33-1.65h0a7.83,7.83,0,0,1-2.85-4.5h0a12.32,12.32,0,0,1-.42-3.25h0a13.64,13.64,0,0,1,.37-3.45h0a7.49,7.49,0,0,1,2.83-4.15h0a8.18,8.18,0,0,1,5-1.57h0a7.37,7.37,0,0,1,5.45,2h0a10.24,10.24,0,0,1,2.6,5.7h0c.1.77.17,1.62.2,2.55h0q0,.6-.57.6H150.48a.21.21,0,0,0-.23.23h0a6.89,6.89,0,0,0,.25,1.07h0a2.81,2.81,0,0,0,1.4,1.65h0a4.87,4.87,0,0,0,2.5.6Zm-.92-10.15h0a3.21,3.21,0,0,0-1.88.53h0a2.73,2.73,0,0,0-1,1.52h0a6.89,6.89,0,0,0-.2.88h0c0,.15,0,.22.17.22h5.95q.18,0,.18-.15h0a2.44,2.44,0,0,0-.15-.8h0a3.32,3.32,0,0,0-1.08-1.62h0a3.24,3.24,0,0,0-2-.58Zm11.72,14h0a.53.53,0,0,1-.6-.6h0V52.12h0a1.1,1.1,0,0,1,.33-.75h0c.95-.95,2-2,3-3.2h0c1.06-1.18,1.79-2,2.17-2.35h0q1.6-1.82,2.4-2.67h0q3.19-3.52,3.2-5.25h0a2.56,2.56,0,0,0-.87-2h0a3.29,3.29,0,0,0-2.28-.8h0a3.24,3.24,0,0,0-2.27.8h0a2.62,2.62,0,0,0-.88,2.07h0v.7h0a.53.53,0,0,1-.6.6h-3.77a.53.53,0,0,1-.6-.6h0V37.2h0a5.94,5.94,0,0,1,1.17-3.33h0a6.79,6.79,0,0,1,2.9-2.22h0a10.09,10.09,0,0,1,4-.78h0a9.55,9.55,0,0,1,4.33.93h0a7.09,7.09,0,0,1,2.82,2.5h0a6.38,6.38,0,0,1,1,3.5h0a6.78,6.78,0,0,1-.75,3h0a15.81,15.81,0,0,1-2.2,3.32h0q-1.4,1.73-4.82,5.3h0l-1.65,1.75h0c-.07,0-.1.1-.08.15h0a.17.17,0,0,0,.18.1h9.17a.52.52,0,0,1,.6.58h0v3h0a.53.53,0,0,1-.6.6H165.2Zm33.15,0h0a.77.77,0,0,1-.7-.45h0l-4.3-9.53h0a.26.26,0,0,0-.25-.17h-3.17c-.15,0-.23.07-.23.2h0v9.35h0a.53.53,0,0,1-.6.6h-3.72a.53.53,0,0,1-.6-.6h0V31.7h0a.52.52,0,0,1,.6-.58h9.82a8.09,8.09,0,0,1,4,.93h0a6.71,6.71,0,0,1,2.63,2.6h0a7.91,7.91,0,0,1,.92,3.85h0a7,7,0,0,1-1.2,4.1h0a6.42,6.42,0,0,1-3.3,2.4h0a.18.18,0,0,0-.12.12h0a.14.14,0,0,0,0,.18h0L202.73,55h0a.63.63,0,0,1,.1.32h0a.36.36,0,0,1-.13.28h0a.68.68,0,0,1-.4.1h-4Zm-8.42-20.28h0a.21.21,0,0,0-.23.23h0v5.87h0c0,.14.08.2.23.2h4.55a3.47,3.47,0,0,0,2.4-.85h0a2.91,2.91,0,0,0,.92-2.25h0a3.1,3.1,0,0,0-.92-2.3h0a3.37,3.37,0,0,0-2.4-.9h-4.55Zm23.22,2h0a10,10,0,0,1,4.08.8h0A6.71,6.71,0,0,1,220,40.32h0a5,5,0,0,1,1,3h0V55.05h0a.53.53,0,0,1-.6.6h-3.75a.53.53,0,0,1-.6-.6h0v-.83h0c0-.1,0-.15-.05-.17h0a.24.24,0,0,0-.17.1h0a6.21,6.21,0,0,1-4.8,1.77h0a6.76,6.76,0,0,1-4.35-1.32h0A4.73,4.73,0,0,1,205,50.67h0a5,5,0,0,1,1.9-4.17h0a8.51,8.51,0,0,1,5.4-1.5h3.52a.18.18,0,0,0,.2-.2h0v-.73h0a2.34,2.34,0,0,0-.7-1.82h0a3.1,3.1,0,0,0-2.1-.63h0a3.76,3.76,0,0,0-1.72.35h0a1.92,1.92,0,0,0-.93,1h0a.66.66,0,0,1-.7.45h0L206,42.9h0a.85.85,0,0,1-.45-.15h0a.34.34,0,0,1-.13-.33h0a4.67,4.67,0,0,1,1.23-2.6h0A7,7,0,0,1,209.4,38h0a10.47,10.47,0,0,1,3.75-.65Zm-.7,14.88h0a4.1,4.1,0,0,0,2.55-.8h0a2.5,2.5,0,0,0,1.05-2.08h0V48.15h0a.18.18,0,0,0-.2-.2h-2.47a4.53,4.53,0,0,0-2.5.6h0a1.9,1.9,0,0,0-.9,1.67h0a1.81,1.81,0,0,0,.67,1.5h0a2.85,2.85,0,0,0,1.8.53Zm16.63,3.4h0a.65.65,0,0,1-.65-.5h0l-5-16.83h0a.53.53,0,0,1,0-.2h0c0-.31.18-.47.53-.47h3.85a.59.59,0,0,1,.65.52h0l2.42,10.38h0a.14.14,0,0,0,.15.12h0c.07,0,.11,0,.13-.12h0l2.6-10.38h0a.58.58,0,0,1,.65-.52h3.45a.59.59,0,0,1,.65.52h0l2.67,10.4h0c0,.1.06.15.13.15h0q.09,0,.15-.15h0l2.65-10.4h0a.6.6,0,0,1,.67-.52h0l3.85.05h0a.52.52,0,0,1,.43.17h0a.61.61,0,0,1,0,.48h0l-5,16.8h0a.66.66,0,0,1-.65.5h-3.93a.66.66,0,0,1-.67-.5h0L236.25,46h0q-.08-.15-.15-.15h0q-.1,0-.12.15h0l-2.3,9.12h0a.64.64,0,0,1-.68.53h-3.92Z"/></g><g id="aff0b41b-c49a-8916-30ec-3b2fe6f2a890"><path class="cls-1" d="M48.64,62.39a3.64,3.64,0,0,0,3.64-3.64V51.48a1.22,1.22,0,1,0-2.43,0v7.27A1.21,1.21,0,0,1,48.64,60H26.58a1.21,1.21,0,0,1-1.21-1.21V27.23A1.22,1.22,0,0,1,26.58,26h15v6.27a2,2,0,0,0,2,2h6.26v7.48a1.22,1.22,0,0,0,2.43,0V33.07a.89.89,0,0,0,0-.23h0a1.21,1.21,0,0,0-.11-.3v-.06a1.15,1.15,0,0,0-.19-.26l-8.34-8.31a1.57,1.57,0,0,0-.26-.19h-.07a1,1,0,0,0-.29-.11H26.58a3.64,3.64,0,0,0-3.64,3.64V58.77a3.65,3.65,0,0,0,3.64,3.62ZM44,27.71l4.15,4.15H44Z"/><path class="cls-2" d="M92.67,32.8a1.76,1.76,0,0,0-.1-.3v-.06a1.28,1.28,0,0,0-.2-.26l-8.32-8.27a1,1,0,0,0-.26-.19h-.06a1,1,0,0,0-.3-.11H67a3.64,3.64,0,0,0-3.64,3.64V41.8a1.22,1.22,0,0,0,2.43,0V27.25A1.21,1.21,0,0,1,67,26H82V32.3a2,2,0,0,0,2,2h6.26V58.75A1.21,1.21,0,0,1,89.06,60H67a1.21,1.21,0,0,1-1.21-1.21V51.48a1.22,1.22,0,1,0-2.43,0v7.27A3.64,3.64,0,0,0,67,62.39H89.06a3.63,3.63,0,0,0,3.63-3.64V33.07a.89.89,0,0,0,0-.23Zm-8.26-.94V27.71l4.15,4.15Z"/><path class="cls-3" d="M36.4,46.61a1.22,1.22,0,0,0,1.22,1.21H75.28l-1.06,1.07a1.21,1.21,0,0,0,1.54,1.87,1,1,0,0,0,.18-.17l3.13-3.13a1.23,1.23,0,0,0,0-1.72l-3.13-3.12a1.21,1.21,0,0,0-1.78,1.65l.06.06,1.06,1.06H37.62A1.22,1.22,0,0,0,36.4,46.6Z"/></g></svg>